<svg width="15" height="14" viewBox="0 0 15 14" fill="none" xmlns="http://www.w3.org/2000/svg">
<path d="M4.5 1.58374L5.01885 0.728874L4.5 0.413966L3.98115 0.728875L4.5 1.58374ZM7.5 3.40455L6.98115 4.25942L7.5 4.57432L8.01885 4.25942L7.5 3.40455ZM1.5 3.40455L0.981151 2.54968L0.5 2.84171V3.40455H1.5ZM1.5 7.30628H0.5V7.76781L0.851203 8.06724L1.5 7.30628ZM7.5 12.4219L6.8512 13.1829L7.5 13.736L8.1488 13.1829L7.5 12.4219ZM13.5 7.30628L14.1488 8.06724L14.5 7.76781V7.30628H13.5ZM13.5 3.40455H14.5V2.84171L14.0188 2.54968L13.5 3.40455ZM10.5 1.58374L11.0189 0.728875L10.5 0.413966L9.98115 0.728874L10.5 1.58374ZM3.98115 2.43861L6.98115 4.25942L8.01885 2.54968L5.01885 0.728874L3.98115 2.43861ZM2.01885 4.25941L5.01885 2.43861L3.98115 0.728875L0.981151 2.54968L2.01885 4.25941ZM2.5 7.30628V3.40455H0.5V7.30628H2.5ZM8.1488 11.6609L2.1488 6.54532L0.851203 8.06724L6.8512 13.1829L8.1488 11.6609ZM8.1488 13.1829L14.1488 8.06724L12.8512 6.54532L6.8512 11.6609L8.1488 13.1829ZM14.5 7.30628V3.40455H12.5V7.30628H14.5ZM14.0188 2.54968L11.0189 0.728875L9.98115 2.43861L12.9812 4.25941L14.0188 2.54968ZM9.98115 0.728874L6.98115 2.54968L8.01885 4.25942L11.0189 2.43861L9.98115 0.728874Z" fill="white"/>
</svg>
